<?xml version="1.0" encoding="UTF-8"?>
<svg xmlns="http://www.w3.org/2000/svg" viewBox="0 0 800 600" role="img" aria-label="Stars and moon coloring page">
  <title>Stars and moon</title>
  <style>
    .color-area{fill:#fff;stroke:#171421;stroke-width:7;stroke-linecap:round;stroke-linejoin:round;vector-effect:non-scaling-stroke}
    .line{fill:none;stroke:#171421;stroke-width:7;stroke-linecap:round;stroke-linejoin:round;vector-effect:non-scaling-stroke}
    .detail{fill:#171421;stroke:none}
    .page-label{font-family:Arial,sans-serif;font-size:38px;font-weight:800;fill:#171421;text-anchor:middle}
  </style>
  <text class="page-label" x="400" y="66">Stars and moon</text>
      <path class="color-area" data-area-id="stars-and-moon-1" d="M438 145 C358 182 336 306 410 372 C332 360 270 294 270 214 C270 114 372 58 438 145 Z" />
      <polygon class="color-area" data-area-id="stars-and-moon-2" points="180,106 188.3935734027365,128.44723732032574 212.33592155403522,129.4934221912518 193.58108705269478,144.41276267967424 199.98469857794407,167.5065778087482 180,154.28 160.01530142205593,167.5065778087482 166.41891294730522,144.41276267967424 147.66407844596478,129.4934221912518 171.6064265972635,128.44723732032574" />
      <polygon class="color-area" data-area-id="stars-and-moon-3" points="612,88 622.3685318504392,115.72894021922593 651.9443736843964,117.02128623625221 628.7766369474465,135.45105978077407 636.6869805962839,163.9787137637478 612,147.64 587.3130194037161,163.9787137637478 595.2233630525535,135.45105978077407 572.0556263156036,117.02128623625221 601.6314681495608,115.72894021922593" />
      <polygon class="color-area" data-area-id="stars-and-moon-4" points="550,295 557.4060941788852,314.80638587087566 578.5316954888546,315.72949016875157 561.983312105319,328.89361412912433 567.6335575687742,349.27050983124843 550,337.6 532.3664424312258,349.27050983124843 538.016687894681,328.89361412912433 521.4683045111453,315.72949016875157 542.5939058211148,314.80638587087566" />
      <polygon class="color-area" data-area-id="stars-and-moon-5" points="230,362 236.9123545669595,380.4859601461506 256.6295824562643,381.3475241575015 241.184424631631,393.6340398538494 246.45798706418924,412.6524758424985 230,401.76 213.54201293581076,412.6524758424985 218.815575368369,393.6340398538494 203.3704175437357,381.3475241575015 223.0876454330405,380.4859601461506" />
      <polygon class="color-area" data-area-id="stars-and-moon-6" points="400,444 408.8873130146622,467.76766304505077 434.23803458662553,468.8753882025019 414.37997452638274,484.67233695494923 421.16026908252906,509.1246117974981 400,495.12 378.83973091747094,509.1246117974981 385.62002547361726,484.67233695494923 365.76196541337447,468.8753882025019 391.1126869853378,467.7676630450508" />
      <path class="line" d="M100 515 C220 492 300 520 410 504 C520 488 610 515 710 490" />
    
</svg>
