<?xml version="1.0" encoding="UTF-8"?>
<svg xmlns="http://www.w3.org/2000/svg" viewBox="0 0 800 600" role="img" aria-label="Moon and stars coloring page">
  <title>Moon and stars</title>
  <style>
    .color-area{fill:#fff;stroke:#171421;stroke-width:7;stroke-linecap:round;stroke-linejoin:round;vector-effect:non-scaling-stroke}
    .line{fill:none;stroke:#171421;stroke-width:7;stroke-linecap:round;stroke-linejoin:round;vector-effect:non-scaling-stroke}
    .detail{fill:#171421;stroke:none}
    .page-label{font-family:Arial,sans-serif;font-size:38px;font-weight:800;fill:#171421;text-anchor:middle}
  </style>
  <text class="page-label" x="400" y="66">Moon and stars</text>
      <path class="color-area" data-area-id="moon-and-stars-1" d="M455 118 C348 162 318 336 412 424 C292 400 218 306 230 206 C244 90 362 42 455 118 Z" />
      <polygon class="color-area" data-area-id="moon-and-stars-2" points="150,113 157.89983379081085,134.1268115956007 180.43380852144492,135.11145618000168 162.78219957900686,149.1531884043993 168.80912807335915,170.88854381999832 150,158.44 131.19087192664085,170.88854381999832 137.21780042099314,149.1531884043993 119.56619147855508,135.11145618000168 142.10016620918915,134.1268115956007" />
      <polygon class="color-area" data-area-id="moon-and-stars-3" points="650,111 658.3935734027365,133.44723732032574 682.3359215540352,134.4934221912518 663.5810870526948,149.41276267967424 669.9846985779441,172.5065778087482 650,159.28 630.0153014220559,172.5065778087482 636.4189129473052,149.41276267967424 617.6640784459648,134.4934221912518 641.6064265972635,133.44723732032574" />
      <polygon class="color-area" data-area-id="moon-and-stars-4" points="590,302 596.9123545669595,320.4859601461506 616.6295824562643,321.3475241575015 601.184424631631,333.6340398538494 606.4579870641893,352.6524758424985 590,341.76 573.5420129358107,352.6524758424985 578.815575368369,333.6340398538494 563.3704175437357,321.3475241575015 583.0876454330405,320.4859601461506" />
      <polygon class="color-area" data-area-id="moon-and-stars-5" points="260,400 267.40609417888516,419.80638587087566 288.5316954888546,420.72949016875157 271.98331210531893,433.89361412912433 277.6335575687742,454.27050983124843 260,442.6 242.3664424312258,454.27050983124843 248.01668789468107,433.89361412912433 231.4683045111454,420.72949016875157 252.59390582111484,419.80638587087566" />
      <polygon class="color-area" data-area-id="moon-and-stars-6" points="440,476 445.9248753431081,491.84510869670055 462.8253563910837,492.58359213500125 449.5866496842551,503.1148913032995 454.10684605501933,519.4164078649987 440,510.08 425.89315394498067,519.4164078649987 430.4133503157449,503.1148913032995 417.1746436089163,492.58359213500125 434.0751246568919,491.84510869670055" />
    
</svg>
