<?xml version="1.0" encoding="UTF-8"?>
<svg xmlns="http://www.w3.org/2000/svg" viewBox="0 0 800 600" role="img" aria-label="Bunny coloring page">
  <title>Bunny</title>
  <style>
    .color-area{fill:#fff;stroke:#171421;stroke-width:7;stroke-linecap:round;stroke-linejoin:round;vector-effect:non-scaling-stroke}
    .line{fill:none;stroke:#171421;stroke-width:7;stroke-linecap:round;stroke-linejoin:round;vector-effect:non-scaling-stroke}
    .detail{fill:#171421;stroke:none}
    .page-label{font-family:Arial,sans-serif;font-size:38px;font-weight:800;fill:#171421;text-anchor:middle}
  </style>
  <text class="page-label" x="400" y="66">Bunny</text>
      <ellipse class="color-area" data-area-id="bunny-1" cx="400" cy="370" rx="120" ry="112" />
      <ellipse class="color-area" data-area-id="bunny-2" cx="345" cy="144" rx="38" ry="112" transform="rotate(-15 345 144)" />
      <ellipse class="color-area" data-area-id="bunny-3" cx="455" cy="144" rx="38" ry="112" transform="rotate(15 455 144)" />
      <circle class="color-area" data-area-id="bunny-4" cx="400" cy="250" r="96" />
      <ellipse class="color-area" data-area-id="bunny-5" cx="345" cy="475" rx="50" ry="26" />
      <ellipse class="color-area" data-area-id="bunny-6" cx="455" cy="475" rx="50" ry="26" />
      <circle class="detail" cx="365" cy="240" r="7" />
      <circle class="detail" cx="435" cy="240" r="7" />
      <ellipse class="color-area" data-area-id="bunny-7" cx="400" cy="268" rx="15" ry="11" />
      <path class="line" d="M400 280 Q384 300 360 292 M400 280 Q418 302 440 292" />
    <path class="line" d="M90 506 C210 480 310 520 430 500 C545 480 635 506 720 488" />
</svg>
